<?xml version="1.0" standalone="no"?>
<!DOCTYPE svg PUBLIC "-//W3C//DTD SVG 20010904//EN"
 "http://www.w3.org/TR/2001/REC-SVG-20010904/DTD/svg10.dtd">
<svg version="1.0" xmlns="http://www.w3.org/2000/svg"
 width="5000.000000pt" height="4000.000000pt" viewBox="0 0 5000.000000 4000.000000"
 preserveAspectRatio="xMidYMid meet">

<g transform="translate(0.000000,4000.000000) scale(0.100000,-0.100000)"
fill="#000000" stroke="none">
<path d="M24995 31241 c-76 -47 -395 -418 -642 -746 -466 -620 -864 -1333
-1157 -2073 -164 -415 -313 -902 -411 -1349 -3 -13 -12 -23 -19 -23 -21 0 -26
-24 -26 -133 0 -223 65 -343 202 -377 63 -16 142 -2 256 45 257 107 343 112
435 26 64 -59 78 -119 96 -406 9 -153 35 -260 66 -271 7 -3 96 44 197 103 612
365 1025 539 1438 608 106 18 417 32 473 21 l37 -7 -15 -37 c-28 -69 -129
-205 -215 -291 -47 -48 -167 -155 -268 -239 -100 -84 -214 -185 -253 -223
-262 -263 -442 -623 -494 -989 -6 -44 -5 -42 45 49 115 211 263 403 451 586
211 206 399 340 643 460 321 157 612 233 979 255 489 29 992 -74 1452 -299
474 -232 836 -576 1052 -1001 384 -751 321 -1787 -153 -2507 -183 -276 -464
-548 -784 -756 -325 -211 -722 -388 -1335 -597 -653 -222 -936 -360 -1192
-579 -318 -273 -567 -735 -749 -1396 -3 -11 23 30 58 91 225 390 571 712 983
914 154 76 286 123 565 200 205 57 355 113 444 166 33 19 55 29 49 22 -63 -80
-155 -209 -198 -278 -57 -93 -129 -230 -123 -236 6 -5 262 70 355 105 438 162
825 397 1173 713 137 124 303 306 397 434 37 51 70 93 73 93 3 1 2 -38 -3 -86
-9 -91 -2 -379 11 -446 l7 -38 100 51 c217 111 417 262 602 453 198 205 337
403 463 659 180 366 258 682 267 1084 6 257 -9 410 -61 617 -17 70 -29 127
-25 127 20 0 111 -46 183 -93 198 -130 336 -309 417 -542 l27 -80 1 115 c4
576 -200 1156 -569 1620 -46 58 -228 249 -404 425 -401 400 -513 532 -621 729
-71 131 -76 120 51 113 273 -16 545 -105 763 -250 44 -30 81 -50 81 -43 0 6
-9 45 -20 86 -27 98 -116 277 -182 365 -189 252 -520 475 -896 606 -214 74
-386 111 -1062 229 -337 59 -585 120 -771 192 l-82 31 129 33 c212 54 396 136
577 257 95 63 225 166 226 178 1 4 -77 9 -171 12 -214 6 -367 30 -738 114
-601 136 -757 159 -1020 150 -110 -4 -195 -12 -255 -26 -422 -94 -753 -358
-1164 -929 -44 -63 -81 -108 -81 -101 0 30 132 339 216 504 103 204 214 396
466 805 368 597 511 877 634 1235 99 289 134 475 141 762 6 242 8 239 -73 208
-70 -26 -148 -109 -324 -340 -687 -901 -1460 -2047 -2034 -3015 -54 -91 -101
-167 -103 -170 -9 -9 8 171 33 349 63 443 186 888 388 1399 187 474 355 825
921 1920 103 200 194 384 201 409 19 62 18 176 -1 213 -27 52 -77 64 -130 31z"/>
<path d="M22579 27079 c-21 -23 -67 -101 -104 -177 -91 -185 -168 -295 -310
-438 -135 -136 -220 -205 -555 -456 -335 -251 -486 -386 -610 -551 -124 -163
-172 -265 -295 -627 -46 -135 -101 -287 -123 -338 -223 -518 -705 -927 -1257
-1066 -91 -22 -323 -66 -355 -66 -10 0 -11 16 -6 68 13 141 69 304 211 612
173 376 226 580 211 818 -33 515 -279 882 -715 1066 -262 111 -519 145 -1026
136 l-150 -2 70 -18 c39 -9 145 -23 235 -29 459 -33 536 -53 808 -216 272
-162 397 -331 456 -620 35 -172 49 -327 43 -480 -11 -276 -74 -492 -268 -922
-77 -171 -107 -265 -116 -371 l-6 -72 -38 -6 c-54 -9 -95 -37 -102 -69 -2 -15
19 -172 49 -349 30 -176 54 -324 54 -328 0 -4 -21 -10 -47 -13 -136 -18 -221
-50 -398 -150 -165 -94 -241 -130 -343 -164 -335 -112 -660 -101 -917 32 -112
58 -236 182 -286 287 -63 131 -74 185 -74 365 0 177 19 278 76 403 102 227
268 354 704 537 293 123 424 201 547 325 123 124 178 259 178 434 0 245 -135
468 -369 610 -167 102 -345 111 -600 34 l-73 -23 178 0 c193 0 261 -13 375
-70 99 -50 226 -201 309 -365 84 -167 82 -316 -8 -435 -84 -110 -208 -185
-532 -320 -351 -146 -517 -248 -672 -413 -228 -243 -341 -560 -308 -860 13
-123 33 -196 81 -300 140 -303 452 -526 805 -573 255 -34 503 19 947 202 197
81 365 140 459 162 66 15 67 15 82 -8 56 -86 124 -122 264 -139 115 -14 154
-27 218 -72 285 -202 457 -284 703 -334 52 -10 96 -18 98 -16 2 1 -26 26 -62
55 -90 72 -176 184 -235 305 -73 150 -84 205 -71 341 20 201 66 326 149 411
53 53 104 80 222 119 106 35 171 67 291 145 139 90 177 102 350 110 185 9 206
18 319 141 49 53 99 98 119 107 22 9 89 18 166 22 151 8 196 24 369 134 205
131 318 170 491 170 150 0 295 -36 295 -74 0 -29 -46 -76 -92 -95 -24 -9 -91
-20 -150 -25 -162 -12 -174 -21 -281 -211 -14 -25 -41 -60 -59 -78 -45 -44
-162 -100 -225 -108 -52 -6 -53 -6 -53 -40 0 -44 -35 -146 -66 -192 -75 -112
-232 -230 -447 -336 -193 -96 -331 -118 -431 -70 -56 27 -150 118 -226 219
-35 47 -68 82 -72 78 -13 -13 9 -141 36 -207 13 -33 55 -125 94 -205 84 -173
99 -226 111 -398 8 -114 13 -138 37 -182 44 -80 120 -128 247 -154 89 -19 191
-21 236 -5 36 13 59 51 86 144 56 198 202 407 398 571 126 106 245 182 422
269 274 135 530 217 1110 356 478 115 564 144 689 233 118 84 180 200 257 479
27 100 59 207 70 237 73 197 188 304 375 348 43 11 276 41 517 68 240 27 437
51 437 54 0 3 -213 52 -473 109 -259 57 -486 110 -503 116 -45 18 -74 60 -74
108 0 62 47 274 89 404 150 461 449 873 834 1150 42 31 75 58 73 60 -6 6 -334
-96 -473 -148 -320 -119 -661 -279 -928 -435 -241 -140 -254 -146 -303 -141
-119 13 -150 124 -155 559 -2 200 -3 208 -22 208 -28 0 -125 -48 -228 -113
-117 -74 -169 -91 -266 -85 -103 6 -174 41 -262 128 -49 48 -78 87 -103 140
-58 120 -71 197 -71 417 0 108 -4 193 -9 193 -5 0 -26 -18 -47 -41z m-49
-1393 c0 -2 -42 -37 -92 -79 -120 -97 -217 -199 -305 -317 -96 -131 -184 -209
-297 -264 -131 -63 -356 -134 -356 -111 0 3 25 56 56 118 112 222 269 417 387
477 36 19 171 62 327 105 276 76 280 77 280 71z"/>
<path d="M26610 26010 c-327 -31 -584 -102 -840 -230 -401 -201 -707 -518
-860 -890 l-31 -75 43 42 c167 162 875 372 1256 373 242 0 704 -101 1005 -221
220 -88 418 -208 507 -307 140 -155 225 -447 237 -807 4 -149 2 -183 -17 -275
-53 -259 -192 -499 -403 -695 -210 -196 -478 -353 -977 -573 -656 -288 -1255
-581 -1618 -790 -373 -214 -663 -456 -864 -722 -121 -161 -187 -269 -283 -465
-170 -347 -268 -690 -311 -1097 -28 -263 -11 -705 37 -958 89 -476 249 -890
489 -1270 283 -448 635 -787 1220 -1177 177 -117 169 -113 148 -82 -15 23
-286 579 -336 689 -399 882 -513 1398 -473 2140 26 460 104 800 257 1120 211
439 576 870 935 1104 206 133 446 237 1236 532 542 202 759 292 1016 421 833
417 1246 920 1354 1653 26 173 23 510 -6 698 -77 506 -275 920 -590 1232 -58
58 -149 135 -201 173 -116 82 -374 211 -531 265 -222 77 -534 147 -789 177
-155 19 -483 27 -610 15z"/>
<path d="M24846 24774 c-17 -12 -17 -14 -4 -14 9 0 20 5 23 11 11 17 2 18 -19
3z"/>
<path d="M31385 19960 c-570 -50 -1137 -242 -1589 -537 -194 -126 -376 -273
-731 -588 -487 -432 -998 -842 -1315 -1056 -214 -144 -491 -261 -697 -295
-119 -19 -349 -14 -462 11 -333 74 -655 260 -937 541 -153 152 -235 265 -319
438 -49 100 -75 144 -81 135 -16 -26 -9 -456 10 -584 68 -469 219 -852 462
-1175 91 -121 266 -290 376 -363 275 -183 559 -258 923 -244 595 24 1035 207
1510 629 131 117 314 304 628 645 538 583 811 807 1231 1009 486 234 947 253
1329 56 327 -167 499 -421 538 -794 31 -297 -56 -697 -218 -998 -195 -362
-496 -657 -1213 -1186 -691 -511 -1353 -926 -2155 -1354 -640 -341 -962 -538
-1355 -831 -202 -150 -488 -379 -587 -471 -281 -262 -592 -688 -793 -1088
-185 -368 -318 -757 -367 -1070 -24 -158 -24 -472 1 -625 67 -413 207 -743
454 -1068 79 -103 226 -258 302 -317 l45 -35 -58 65 c-301 334 -442 873 -361
1380 52 327 235 802 440 1141 342 566 736 920 1835 1649 947 629 1761 1082
2519 1405 424 181 551 247 835 438 1195 801 1850 1680 1981 2657 20 150 23
467 5 620 -80 691 -392 1268 -853 1577 -219 146 -447 229 -740 269 -138 18
-457 26 -593 14z"/>
<path d="M31000 18473 c-219 -36 -406 -101 -675 -236 -235 -117 -461 -267
-656 -435 -175 -150 -243 -229 -616 -718 -358 -469 -666 -714 -1062 -844 -272
-89 -650 -140 -1047 -140 -527 0 -916 124 -1184 376 -135 128 -243 284 -373
539 l-71 140 -7 -50 c-28 -206 100 -500 359 -825 95 -119 403 -427 502 -502
145 -109 442 -216 745 -268 149 -25 389 -41 516 -33 l99 6 -40 34 c-85 73
-140 189 -140 295 0 32 3 58 6 58 3 0 69 -18 146 -41 678 -195 1110 -223 1498
-96 l95 31 -66 7 c-36 4 -89 17 -117 29 -83 36 -182 154 -182 218 0 16 25 25
166 61 374 96 731 242 1049 432 193 115 273 195 296 297 7 28 10 55 6 58 -3 3
-107 1 -231 -5 -125 -6 -262 -11 -306 -11 -74 0 -82 2 -114 31 -70 61 -71 190
-1 338 51 107 169 223 285 280 129 63 220 83 375 84 209 1 378 -39 734 -175
102 -38 224 -83 271 -99 96 -34 280 -82 286 -76 3 2 -25 47 -60 99 -36 52 -92
143 -125 202 -56 101 -151 317 -166 377 l-6 26 113 6 c193 9 384 -20 490 -74
157 -80 242 -285 194 -466 -18 -68 -43 -106 -108 -169 -61 -58 -81 -72 -311
-218 -278 -176 -316 -193 -589 -272 -321 -92 -432 -147 -550 -273 -66 -69
-110 -147 -127 -222 -21 -89 -38 -82 197 -75 114 4 234 9 267 12 l60 5 -55
-52 c-146 -139 -379 -257 -830 -421 -91 -33 -214 -80 -275 -105 -390 -159
-662 -371 -784 -610 -24 -48 -24 -49 25 -28 61 25 180 45 271 45 95 0 163 -8
163 -20 0 -4 -17 -14 -37 -23 -21 -8 -78 -33 -128 -55 -214 -94 -435 -167
-990 -327 -486 -140 -721 -222 -963 -335 -179 -85 -397 -222 -522 -330 -25
-22 -25 -22 -2 -17 71 16 302 -27 413 -76 l54 -24 -720 -361 c-820 -410 -905
-459 -1055 -604 -212 -203 -350 -471 -485 -938 -20 -69 -38 -131 -40 -137 -9
-26 3 -11 40 49 69 111 182 211 315 279 67 34 178 71 191 64 17 -11 -25 -259
-72 -425 -39 -142 -94 -295 -202 -570 -114 -290 -185 -522 -211 -685 l-7 -40
34 60 c45 82 90 152 176 270 157 216 289 468 476 915 205 486 293 662 426 846
183 253 408 473 729 713 673 502 1883 1235 2500 1514 671 303 1126 606 1926
1282 396 334 513 456 674 700 287 436 355 856 195 1203 -119 256 -374 452
-670 513 -84 18 -309 25 -385 12z"/>
</g>
</svg>
